<?xml version="1.0" encoding="utf-8"?>
<!-- Generator: Adobe Illustrator 25.0.0, SVG Export Plug-In . SVG Version: 6.00 Build 0)  -->
<svg version="1.1" id="Layer_1" xmlns="http://www.w3.org/2000/svg" xmlns:xlink="http://www.w3.org/1999/xlink" x="0px" y="0px"
	 viewBox="0 0 730.2 893.4" style="enable-background:new 0 0 730.2 893.4;" xml:space="preserve">
<style type="text/css">
	.st0{fill:#F7F7F7;}
	.st1{fill:none;stroke:#E5E5E5;stroke-width:4.36;stroke-linecap:round;stroke-linejoin:round;}
	.st2{fill:#CDB4DB;}
	.st3{fill:none;stroke:#777777;stroke-width:4.36;stroke-linecap:round;stroke-linejoin:round;}
	.st4{fill:#9DC4E8;}
	.st5{fill:#FFC8DD;}
	.st6{fill-rule:evenodd;clip-rule:evenodd;fill:#CDB4DB;}
	.st7{fill:#777777;}
	.st8{fill:#C2C2C2;}
	.st9{fill-rule:evenodd;clip-rule:evenodd;fill:#C2C2C2;}
	.st10{fill-rule:evenodd;clip-rule:evenodd;fill:#777777;}
	.st11{fill:none;stroke:#909090;stroke-width:3.06;stroke-linecap:round;stroke-linejoin:round;}
	.st12{fill:#BACDEA;}
	.st13{fill:none;stroke:#FFFFFF;stroke-width:3.06;stroke-linecap:round;stroke-linejoin:round;}
	.st14{fill:none;stroke:#BACDEA;stroke-width:5.14;stroke-linecap:round;stroke-linejoin:round;}
</style>
<g id="Layer_2_1_">
	<g id="vector">
		<path class="st0" d="M536.9,159.3c61.6,67.3,102.4,143.9,107.3,219.9c4.9,75.8-26,150.9-63.2,229.2
			c-37.2,78.1-80.7,159.2-146.8,187.7C368,824.3,279,799.8,213,756.3C147,713,104.1,651,73.3,587.1s-49-129.7-42-194.9
			c7-65,39.4-129.2,90.2-198.4c50.7-69.3,119.6-143.2,195.4-151.4S475.1,92.1,536.9,159.3z"/>
		<path class="st1" d="M350,112.9L2.2,478.4l607.5,118.4L350,112.9z"/>
		
			<ellipse transform="matrix(8.248051e-02 -0.9966 0.9966 8.248051e-02 2.6717 499.0219)" class="st2" cx="272.4" cy="248.1" rx="48.4" ry="48.4"/>
		<path class="st3" d="M305.8,239.2c0.7-5-0.7-9.2-3-9.5s-4.7,3.4-5.4,8.4s0.7,9.2,3,9.5S305.1,244.2,305.8,239.2z"/>
		<polygon class="st4" points="289.9,121.8 320.7,188.4 247.6,181.9 		"/>
		<polygon class="st5" points="686.2,240.5 662.2,330 596.7,264.5 		"/>
		<path class="st6" d="M453.5,310.8c0-19,15.4-34.3,34.3-34.3c19,0,34.3,15.4,34.3,34.3s-15.4,34.3-34.3,34.3
			C468.9,345.1,453.5,329.8,453.5,310.8z"/>
		<path class="st7" d="M322.4,835.7c20.7,0,72.4,2.6,104.9,57.7H277.6v-57.7H322.4z"/>
		<path class="st8" d="M510.4,718.5c16-13.2,57.4-44.2,117.5-22.5l-115.3,95.5l-36.8-44.4L510.4,718.5z"/>
		<path class="st4" d="M284,329.2c41.6,8.4,90.4,111.8,41.6,238.8c-37.1,25-141.5,9.6-172.1-14.2C140.4,472.8,214.1,315,284,329.2z"
			/>
		<path class="st9" d="M151.9,575.3c0-30.1,198.4-144.1,253.8-144.1c82.3,0,112.6,264.5,116.9,280.4c-5.9,6.3-46.1,37.5-46.1,37.5
			c-14.6-21.8-123.5-190.8-123.5-190.8c-18.2,15-91.1,84.7-128.9,84.7C202.6,643,151.9,624.8,151.9,575.3z"/>
		<path class="st10" d="M389.2,527c101.2,24.2-15.3,271.4-42.5,313.4c-18.1,8.5-55.6,11.6-69.1-3.2
			C275.3,818.5,263.8,496.9,389.2,527z"/>
		<path class="st6" d="M141.4,531.2c0-19,15.4-34.3,34.3-34.3c19,0,34.3,15.4,34.3,34.3s-15.4,34.3-34.3,34.3
			S141.4,550.2,141.4,531.2L141.4,531.2z"/>
		<polyline class="st11" points="253.9,642.9 38.9,642.9 13.1,412.4 		"/>
		<line class="st11" x1="90.7" y1="642.9" x2="15.5" y2="866.3"/>
		<line class="st11" x1="192.2" y1="642.9" x2="267.4" y2="866.3"/>
		<path class="st12" d="M592.4,0h62.1c10.3,0,18.6,8.3,18.6,18.6v37.5c0,10.3-8.3,18.6-18.6,18.6h-62.1c-10.3,0-18.6-8.3-18.6-18.6
			V18.6C573.7,8.3,582.1,0,592.4,0z"/>
		<line class="st13" x1="602.8" y1="28" x2="644" y2="28"/>
		<line class="st13" x1="602.8" y1="37.4" x2="644" y2="37.4"/>
		<line class="st13" x1="602.8" y1="46.7" x2="644" y2="46.7"/>
		<polygon class="st12" points="623.4,96.4 635.9,74.8 611,74.8 		"/>
		<path class="st5" d="M594,148.8l-48.6-45.5l-60.2,64.3l48.6,45.5c6.9,6.4,26-2.7,42.6-20.5S600.8,155.3,594,148.8z"/>
		
			<ellipse transform="matrix(0.6834 -0.73 0.73 0.6834 41.3508 482.9464)" class="st14" cx="577.5" cy="193.8" rx="44.1" ry="17.1"/>
		
			<rect x="662" y="129.6" transform="matrix(0.4642 -0.8857 0.8857 0.4642 229.7186 697.0556)" class="st4" width="58.1" height="58.1"/>
	</g>
</g>
</svg>
