<?xml version="1.0" encoding="utf-8"?>
<!-- Generator: Adobe Illustrator 25.0.0, SVG Export Plug-In . SVG Version: 6.00 Build 0)  -->
<svg version="1.1" id="Layer_1" xmlns="http://www.w3.org/2000/svg" xmlns:xlink="http://www.w3.org/1999/xlink" x="0px" y="0px"
	 viewBox="0 0 734.9 553.8" style="enable-background:new 0 0 734.9 553.8;" xml:space="preserve">
<style type="text/css">
	.st0{fill:#F7F7F7;}
	.st1{fill:none;stroke:#E5E5E5;stroke-width:2.47;stroke-linecap:round;stroke-linejoin:round;}
	.st2{fill:none;stroke:#E5E5E5;stroke-width:3.06;stroke-linecap:round;stroke-linejoin:round;}
	.st3{fill:#9FBCE2;}
	.st4{fill:none;stroke:#FFFFFF;stroke-width:8;stroke-linecap:round;stroke-linejoin:round;}
	.st5{fill:#CEBFCF;}
	.st6{fill:none;stroke:#4E4E4E;stroke-width:4.93;stroke-linecap:round;stroke-linejoin:round;}
	.st7{fill:#797878;}
	.st8{fill:#C2C2C2;}
	.st9{fill:#FFFFFF;}
	.st10{fill-rule:evenodd;clip-rule:evenodd;fill:#CEBFCF;}
	.st11{fill:#777777;}
	.st12{fill:none;stroke:#BACDEA;stroke-width:5.14;stroke-linecap:round;stroke-linejoin:round;}
	.st13{fill:none;stroke:#FFFFFF;stroke-width:2.48;stroke-linecap:round;stroke-linejoin:round;}
</style>
<g id="Layer_2_1_">
	<g id="vector">
		<path class="st0" d="M591.8,97.1c67.2,71.4,95,187.1,65.7,279.7s-115.5,162-196.3,174.8s-156-31-218.9-72.2
			S128.8,399.7,90.3,330.2S25.8,160.1,64.6,95.3S207.2,1.1,312.5,0S524.6,25.7,591.8,97.1z"/>
		<circle class="st1" cx="570.9" cy="368.8" r="162.8"/>
		<path class="st2" d="M221.5,91.3L1.5,363.3l395.7,99.2L221.5,91.3z"/>
		<path class="st3" d="M311.2,247c110.2,3.7,116.5,210.4,103.6,231.6s-171.6,13.7-192.8-13.7S229.1,244.2,311.2,247z"/>
		<line class="st4" x1="300.5" y1="290.3" x2="361.5" y2="379.3"/>
		<circle class="st5" cx="341" cy="159.4" r="54.6"/>
		<path class="st6" d="M337.3,154c0.8-5.6-0.8-10.4-3.4-10.8s-5.3,3.9-6.1,9.5s0.8,10.4,3.4,10.8S336.6,159.6,337.3,154z"/>
		<polygon class="st7" points="306.7,25 314,107.7 238.7,72.6 		"/>
		<path class="st8" d="M463,73.3l33.3,0c8.7,0,15.7,7,15.7,15.7l0,33.3c0,8.7-7,15.7-15.7,15.7l-33.3,0c-8.7,0-15.7-7-15.7-15.7
			l0-33.3C447.3,80.3,454.3,73.2,463,73.3z"/>
		<circle class="st3" cx="512" cy="73.3" r="12.5"/>
		<path class="st9" d="M475.4,91.8l-11.4,19.7c-1.4,2.3-0.6,5.3,1.8,6.7c0.7,0.4,1.6,0.7,2.5,0.7H491c2.7,0,4.9-2.2,4.9-4.9
			c0-0.9-0.2-1.7-0.6-2.4l-11.4-19.7c-1.3-2.3-4.3-3.2-6.7-1.8C476.4,90.5,475.8,91.1,475.4,91.8z"/>
		<path class="st10" d="M311.2,343.5c0-14.5,11.8-26.3,26.3-26.3s26.3,11.8,26.3,26.3s-11.8,26.3-26.3,26.3h0
			C323,369.8,311.2,358,311.2,343.5z"/>
		<polygon class="st8" points="438.1,435.4 353.1,450.4 383.1,324.4 468.1,309.4 		"/>
		<polygon class="st11" points="442.2,438.2 357.2,453.2 387.2,327.2 472.2,312.2 		"/>
		<path class="st12" d="M389.6,323.6c-0.2-0.7-0.3-1.4-0.3-2.1c0-4.4,3.6-8,8-8s8,3.6,8,8s-3.6,8-8,8"/>
		<path class="st12" d="M413.6,319.3c-0.2-0.7-0.3-1.4-0.3-2.1c0-4.4,3.6-8,8-8s8,3.6,8,8s-3.6,8-8,8"/>
		<path class="st12" d="M435.4,315.6c-0.2-0.7-0.3-1.4-0.3-2.1c0-4.4,3.6-8,8-8s8,3.6,8,8s-3.6,8-8,8"/>
		<path class="st12" d="M457.9,311.3c-1.2-4.3,1.3-8.7,5.6-9.9s8.7,1.3,9.9,5.6s-1.3,8.7-5.6,9.9c-0.7,0.2-1.4,0.3-2.2,0.3"/>
		<path class="st10" d="M439.3,379.9c0-14.5,11.8-26.3,26.3-26.3s26.3,11.8,26.3,26.3s-11.8,26.3-26.3,26.3h0
			C451.1,406.3,439.3,394.5,439.3,379.9z"/>
		<path class="st8" d="M566.5,126.3h75.1c2.9,0,5.3,2.4,5.3,5.3v93.5c0,2.9-2.4,5.3-5.3,5.3h-75.1c-2.9,0-5.3-2.4-5.3-5.3v-93.5
			C561.2,128.7,563.6,126.3,566.5,126.3z"/>
		<circle class="st9" cx="577" cy="144.2" r="6.2"/>
		<line class="st13" x1="591.4" y1="144.2" x2="637.2" y2="144.2"/>
		<circle class="st9" cx="577" cy="169.4" r="6.2"/>
		<line class="st13" x1="591.4" y1="169.4" x2="637.2" y2="169.4"/>
		<circle class="st9" cx="577" cy="194.7" r="6.2"/>
		<line class="st13" x1="591.4" y1="194.7" x2="637.2" y2="194.7"/>
	</g>
</g>
</svg>
