<?xml version="1.0" encoding="utf-8"?>
<!-- Generator: Adobe Illustrator 25.0.0, SVG Export Plug-In . SVG Version: 6.00 Build 0)  -->
<svg version="1.1" id="Layer_1" xmlns="http://www.w3.org/2000/svg" xmlns:xlink="http://www.w3.org/1999/xlink" x="0px" y="0px"
	 viewBox="0 0 708 757.6" style="enable-background:new 0 0 708 757.6;" xml:space="preserve">
<style type="text/css">
	.st0{fill:#F7F7F7;}
	.st1{fill:none;stroke:#E5E5E5;stroke-width:3.06;stroke-linecap:round;stroke-linejoin:round;}
	.st2{fill-rule:evenodd;clip-rule:evenodd;fill:#777777;}
	.st3{fill:#BACDEA;}
	.st4{fill-rule:evenodd;clip-rule:evenodd;fill:#9DC4E8;}
	.st5{fill:#CEBFCF;}
	.st6{fill:none;stroke:#787878;stroke-width:3.85;stroke-linecap:round;stroke-linejoin:round;}
	.st7{fill:#777777;}
	.st8{fill-rule:evenodd;clip-rule:evenodd;fill:#CEBFCF;}
	.st9{fill-rule:evenodd;clip-rule:evenodd;fill:#C2C2C2;}
	.st10{fill:#9FBCE2;}
	.st11{fill:#BACEEB;}
	.st12{fill:none;stroke:#BACDEA;stroke-width:5.14;stroke-linecap:round;stroke-linejoin:round;}
	.st13{fill-rule:evenodd;clip-rule:evenodd;fill:#383838;}
	.st14{fill:none;stroke:#FFFFFF;stroke-width:16.23;stroke-linecap:round;stroke-linejoin:round;}
</style>
<g id="Layer_2_1_">
	<g id="Layer_2-2">
		<path class="st0" d="M450.1,232.7c59.9,89.7,139.8,148.8,146.9,221c7.2,72.3-58.2,157.6-131.5,171.9
			c-73.4,14.4-154.8-42.2-241.7-84.8c-87-42.7-179.6-71.5-211.1-135.2c-31.4-63.9-1.5-163,58.3-252.6
			C130.8,63.5,220.7-16.9,285.5,3.1C350.4,22.9,390.3,143,450.1,232.7z"/>
		<path class="st1" d="M239.4,243C239.4,114,344,9.4,473,9.4S706.5,114,706.5,243S601.9,476.5,472.9,476.5S239.4,372,239.4,243z"/>
		<path class="st2" d="M346.5,334.6c-2,5.3-57.9,175.3-57.9,187.8s222.9,143.8,241.9,147.4c10.4-4.5,10.4-24.8,10.4-35.1
			s-81.8-69-81.8-69L346.5,334.6z"/>
		<rect x="293.5" y="149.2" class="st3" width="82" height="166.4"/>
		<path class="st4" d="M416.6,120.1c79.4,0,69.5,164.6,64.8,182.7c-11.1,13.6-107.2,20.2-141.2,0
			C327.5,271.9,341.5,120.1,416.6,120.1z"/>
		<circle class="st5" cx="422.6" cy="48.8" r="42.7"/>
		<path class="st6" d="M391.8,10.3c16.1,28.8,48.4,44.7,81.1,40"/>
		<path class="st6" d="M417.2,60c-1.4-4.2-1-8.1,0.9-8.8s4.7,2.2,6.1,6.3s1,8.1-0.9,8.8S418.6,64.2,417.2,60z"/>
		<path class="st7" d="M527.6,660.1c-5.1,13-16.2,46,10.3,80l37-93.9L538.7,632L527.6,660.1z"/>
		<path class="st8" d="M268.5,203c0-13.8,11.2-25,25-25s25,11.2,25,25s-11.2,25-25,25S268.5,216.8,268.5,203z"/>
		<path class="st9" d="M346.5,334.6c10.3,4,105.6,13.1,137,0c3.2,25.4,0.2,423,0.2,423H372.3c0-14.7,22-41,66.8-41.4
			C436.5,696.1,346.5,334.6,346.5,334.6z"/>
		<path class="st10" d="M169,78.7h34.8c11.2,0,20.3,9.1,20.3,20.3v34.8c0,11.2-9.1,20.3-20.3,20.3H169c-11.2,0-20.3-9.1-20.3-20.3
			V99C148.6,87.8,157.7,78.7,169,78.7z"/>
		<circle class="st11" cx="224.1" cy="78.7" r="16.7"/>
		<path class="st12" d="M447.4,126.6c-14.5,32.4,0,70.4,32.4,85c2.7,1.2,5.4,2.2,8.2,3"/>
		<path class="st12" d="M342.1,258.9c35.5,0,64.2-28.7,64.3-64.2c0-20.9-10.2-40.5-27.3-52.6"/>
		<path class="st12" d="M490.3,246.6c-30.1-18.9-69.7-9.8-88.6,20.2c-8.8,14-11.9,30.9-8.5,47.1"/>
		<polygon class="st13" points="412.1,249.1 378.9,242.6 370.9,185.2 404.1,191.7 		"/>
		<path class="st8" d="M391.5,243c0-13.8,11.2-25,25-25s25,11.2,25,25c0,13.8-11.2,25-25,25l0,0C402.7,268,391.5,256.8,391.5,243z"
			/>
		<path class="st14" d="M438.6,146.4c16,14.7,25,40.1,29.7,67"/>
	</g>
</g>
</svg>
